<?xml version="1.0" encoding="UTF-8"?>
<!DOCTYPE svg PUBLIC "-//W3C//DTD SVG 1.1//EN" "http://www.w3.org/Graphics/SVG/1.1/DTD/svg11.dtd">
<!-- Creator: CorelDRAW -->
<svg xmlns="http://www.w3.org/2000/svg" xml:space="preserve" width="2048px" height="2048px" style="shape-rendering:geometricPrecision; text-rendering:geometricPrecision; image-rendering:optimizeQuality; fill-rule:evenodd; clip-rule:evenodd"
viewBox="0 0 2048 2048"
 xmlns:xlink="http://www.w3.org/1999/xlink">
 <defs>
  <style type="text/css">
   <![CDATA[
    .fil5 {fill:none}
    .fil1 {fill:#5D5D5D}
    .fil3 {fill:#A0A0A0}
    .fil0 {fill:#A4A4A5}
    .fil2 {fill:#BCBCBC}
    .fil4 {fill:#959595;fill-rule:nonzero}
   ]]>
  </style>
 </defs>
 <g id="Layer_x0020_1">
  <metadata id="CorelCorpID_0Corel-Layer"/>
  <g id="_291454720">
   <path id="_291438760" class="fil0" d="M1406.86 1112.22c88.1044,0 167.875,35.7166 225.616,93.4572 57.7418,57.743 93.4572,137.511 93.4572,225.616 0,88.1044 -35.7166,167.875 -93.4572,225.616 -57.7406,57.7406 -137.511,93.4572 -225.616,93.4572 -88.1056,0 -167.874,-35.7154 -225.617,-93.4572 -57.7406,-57.7406 -93.4572,-137.511 -93.4572,-225.616 0,-88.1044 35.7166,-167.875 93.4572,-225.616 57.743,-57.7418 137.512,-93.4572 225.617,-93.4572z"/>
   <path id="_291454936" class="fil1" d="M1493.24 1463.78l61.8863 19.5969c-9.50434,34.5532 -25.2709,60.1914 -47.3729,76.989 -22.0276,16.7244 -50.0977,25.1232 -84.0615,25.1232 -41.9929,0 -76.5461,-14.3669 -103.584,-43.0264 -16.1067,-17.1165 -27.4299,-37.9713 -33.9508,-62.5489l-57.7028 0 0 -32.0008 52.1126 0c-0.700394,-7.4563 -1.05354,-15.1819 -1.05354,-23.1803 0,-3.71221 0.0708662,-7.363 0.205512,-10.9583l-51.2646 0 0 -32.0008 54.5174 0c5.61733,-32.5028 18.0756,-59.0882 37.3571,-79.7812 27.1855,-29.1 62.9174,-43.6878 107.268,-43.6878 38.6788,0 70.1375,11.4189 94.3028,34.3323 14.4402,13.4823 25.1965,32.9315 32.4166,58.2756l-63.2859 15.1028c-3.68386,-16.4291 -11.4933,-29.3953 -23.4284,-38.8996 -11.8618,-9.50434 -26.3008,-14.2193 -43.2461,-14.2193 -23.4284,0 -42.5103,8.39883 -57.0969,25.2697 -9.09331,10.4705 -15.3508,25.0063 -18.776,43.6075l73.1764 0 0 32.0008 -76.2131 0c-0.0448819,2.02559 -0.068504,4.08071 -0.068504,6.17008 0,10.0488 0.451181,19.3713 1.35473,27.9685l74.9268 0 0 32.0008 -68.4012 0c3.43701,10.2992 8.00197,18.7984 13.7055,25.4918 14.3669,17.0185 33.0803,25.4906 56.0658,25.4906 17.0185,0 31.6063,-5.37756 43.8355,-16.2083 12.2303,-10.7563 20.9977,-27.7748 26.3752,-50.9079z"/>
   <g>
    <path id="_291454768" class="fil2" d="M641.143 320.742c88.1044,0 167.874,35.7154 225.617,93.4572 57.7406,57.7406 93.4572,137.511 93.4572,225.616 0,88.1044 -35.7154,167.874 -93.4572,225.617 -57.743,57.7418 -137.512,93.4572 -225.617,93.4572 -88.1044,0 -167.875,-35.7166 -225.616,-93.4572 -57.7418,-57.743 -93.4572,-137.512 -93.4572,-225.617 0,-88.1044 35.7166,-167.875 93.4572,-225.616 57.7406,-57.7406 137.511,-93.4572 225.616,-93.4572z"/>
    <path id="_291454120" class="fil3" d="M664.865 744.8c10.8295,-1.98898 19.5969,-6.99922 26.3752,-14.9563 6.77717,-8.03032 10.1669,-17.387 10.1669,-28.2166 0,-9.65079 -2.87362,-17.9032 -8.54646,-24.9012 -5.67284,-6.99922 -15.0295,-12.378 -27.9957,-16.0618l0 84.1359zm-31.2378 -229.641c-8.54646,2.87362 -15.2504,7.80945 -20.3339,14.661 -5.01024,6.92599 -7.51418,14.5878 -7.51418,22.9122 0,7.58859 2.28307,14.7354 6.85158,21.2185 4.64055,6.5563 11.6398,11.8618 20.9965,15.913l0 -74.7048zm0 226.619l0 -90.3969c-28.2166,-8.10355 -48.9189,-20.2606 -62.1071,-36.6154 -13.1138,-16.3559 -19.7445,-36.1736 -19.7445,-59.4544 0,-23.576 7.44095,-43.3937 22.324,-59.4556 14.9551,-16.0606 34.7729,-25.2697 59.5276,-27.7748l0 -21.365 31.2378 0 0 21.365c22.9122,2.8004 41.1095,10.5354 54.665,23.4284 13.4823,12.8929 22.102,30.1323 25.8603,51.7193l-54.593 7.14567c-3.31536,-17.0185 -11.935,-28.5118 -25.9323,-34.552l0 84.3556c34.5532,9.3567 58.128,21.5126 70.5792,36.3945 12.5244,14.8819 18.7866,33.9638 18.7866,57.3178 0,26.0067 -7.88268,47.9622 -23.576,65.791 -15.7654,17.902 -37.7209,28.8059 -65.7898,32.8583l0 40.3725 -31.2378 0 0 -39.3414c-24.9012,-3.02008 -45.1618,-12.3036 -60.7075,-27.8481 -15.5445,-15.4713 -25.4173,-37.4268 -29.7638,-65.791l56.3611 -6.04134c2.28307,11.4933 6.62953,21.4394 12.9662,29.765 6.26221,8.32442 13.3347,14.3658 21.1441,18.1228z"/>
   </g>
   <path id="_291454816" class="fil4" d="M901.664 1679.23c-149.617,-16.8366 -283.816,-84.6331 -384.815,-185.632 -117.226,-117.227 -189.732,-279.171 -189.732,-458.047 0,-10.2579 0.324803,-21.561 0.972048,-33.8941 0.592914,-11.3268 1.48347,-22.6063 2.66221,-33.8185l63.5008 6.50079c-1.07362,10.2047 -1.87914,20.3988 -2.41181,30.5681 -0.480709,9.15709 -0.721654,19.376 -0.721654,30.6437 0,161.21 65.341,307.155 170.981,412.797 89.3883,89.3871 207.633,149.915 339.565,166.427l0 -104.64 130.33 112.869 27.8563 24.124 -27.8563 24.1264 -130.33 112.87 0 -104.894z"/>
   <path id="_291454504" class="fil4" d="M1090.76 537.863l-158.186 -136.993 158.186 -136.996 0 104.894c149.617,16.8366 283.816,84.6331 384.815,185.632 117.226,117.227 189.732,279.171 189.732,458.047 0,10.2614 -0.324803,21.5669 -0.972048,33.9024 -0.592914,11.3244 -1.48347,22.6004 -2.66221,33.8103l-63.5008 -6.50079c1.07362,-10.2024 1.87914,-20.3929 2.41181,-30.5599 0.480709,-9.15827 0.721654,-19.3807 0.721654,-30.652 0,-161.21 -65.341,-307.155 -170.981,-412.797 -89.3883,-89.3871 -207.633,-149.915 -339.565,-166.427l0 104.64z"/>
  </g>
 </g>
 <rect class="fil5" width="2048" height="2048"/>
</svg>
